<svg width="189" height="186" viewBox="0 0 189 186" fill="none" xmlns="http://www.w3.org/2000/svg">
<g clip-path="url(#clip0_1745_4948)">
<path d="M25.2914 142.08C32.4984 132.932 39.7055 123.792 47.032 114.498C46.7227 114.133 46.3992 113.629 45.9562 113.257C34.4672 103.507 22.957 93.7712 11.4609 84.0282C7.9875 81.0843 4.5 78.1614 1.08984 75.1404C0.520312 74.6357 0.351562 73.6894 0 72.9464C0.696094 72.659 1.37109 72.2455 2.10234 72.0913C12.4875 69.8483 22.6547 71.2291 32.8359 73.6824C39.0586 75.1824 45.4219 76.1077 51.7289 77.2782C52.2211 77.3693 52.7273 77.3623 53.6203 77.4324C52.193 72.7572 50.843 68.3763 49.5141 63.9885C48.4805 60.5609 47.5102 57.1123 46.4344 53.6988C45.9141 52.0516 46.4133 51.2525 48.1078 50.9371C52.2492 50.159 56.1094 50.0469 59.8992 52.6894C63.9773 55.5282 68.4844 57.7502 73.2094 60.4838C73.7367 57.7992 74.2219 55.4511 74.6648 53.089C77.7727 36.617 80.8734 20.138 83.9953 3.66606C84.3258 1.90671 84.3539 -0.0208575 87.1031 0.000170525C91.357 0.0352173 92.0531 0.287554 92.9742 3.63802C97.0102 18.2876 101.011 32.9511 105.019 47.6076C105.159 48.1123 105.314 48.603 105.63 49.6964C106.847 47.2852 107.845 45.3226 108.837 43.353C112.409 36.2455 115.924 29.11 119.602 22.0586C120.284 20.7548 120.663 18.6871 123.054 19.1707C127.041 19.9838 128.447 21.1964 128.602 24.2455C129.101 34.2759 129.558 44.2992 130.05 54.6941C132.145 52.9768 134.212 51.3226 136.23 49.6053C141.771 44.902 147.262 40.1357 152.845 35.4745C154.069 34.4511 155.257 32.6707 157.338 34.3319C159.307 35.909 161.543 36.9675 160.291 40.381C156.354 51.1193 152.705 61.9628 148.943 72.7712C147.656 76.4651 147.663 76.4791 151.263 77.6848C162.745 81.5329 174.234 85.367 185.716 89.2221C186.546 89.5025 187.383 89.8109 188.142 90.2385C188.536 90.4628 189.021 90.9955 188.993 91.346C188.965 91.7175 188.423 92.2081 188.002 92.3553C186.687 92.8319 185.33 93.2245 183.966 93.5679C174.621 95.9441 165.262 98.2992 155.278 100.816C158.702 103.115 161.627 105.077 164.559 107.033C168.335 109.556 168.363 110.692 164.109 112.437C161.754 113.404 159.012 113.46 156.438 113.881C155.524 114.028 154.582 114.035 153.26 114.133C154.02 115.816 154.589 117.147 155.215 118.458C158.759 125.874 162.33 133.269 165.853 140.692C166.486 142.031 167.92 143.601 165.93 144.82C163.976 146.019 162.218 148.01 159.342 146.04C153.408 141.988 147.262 138.245 141.195 134.39C140.393 133.886 139.542 133.451 138.319 132.757C138.066 136.717 137.834 140.32 137.616 143.93C137.545 145.066 137.7 146.25 137.412 147.323C137.06 148.64 136.695 150.442 135.731 151.003C133.91 152.054 131.794 152.103 129.952 150.295C127.54 147.925 124.903 145.774 121.95 143.159C121.88 144.533 121.802 145.353 121.802 146.166C121.802 157.703 121.823 169.234 121.83 180.771C121.83 184.43 120.93 185.587 117.218 185.979C116.409 186.063 115.08 185.215 114.659 184.444C110.911 177.526 107.297 170.538 103.676 163.556C99.8578 156.182 96.075 148.788 92.2711 141.407C92.1234 141.119 91.8633 140.881 91.3641 140.25C88.7133 144.729 86.2172 148.991 83.693 153.231C82.35 155.488 80.9578 157.71 79.6148 159.96C78.8133 161.313 77.8219 161.594 76.3031 161.019C72.9914 159.764 70.8398 158.005 70.1367 154.101C68.8289 146.811 66.7336 139.661 65.1375 132.414C64.6172 130.052 63.3164 130.816 62.0227 131.243C52.7695 134.299 43.5375 137.397 34.2844 140.432C31.507 141.344 28.6805 142.094 25.875 142.914C25.6781 142.626 25.4812 142.339 25.2844 142.052L25.2914 142.08ZM158.47 143.369C158.618 143.236 158.766 143.096 158.913 142.963C154.47 134.054 150.026 125.145 145.596 116.229C143.838 112.689 144.33 111.883 148.233 111.876C151.77 111.869 155.306 111.876 158.843 111.876C154.582 108.575 150.216 105.869 145.905 103.066C145.259 102.645 144.499 101.706 144.57 101.103C144.64 100.528 145.688 99.9885 146.398 99.61C147.002 99.2946 147.734 99.2034 148.423 99.0563C159.497 96.6871 170.578 94.3249 181.659 91.9488C182.44 91.7805 183.206 91.5422 183.98 91.3319C183.199 90.603 182.475 90.3506 181.737 90.1333C168.609 86.2572 155.468 82.395 142.348 78.5048C139.423 77.6357 139.05 76.9277 140.084 74.145C143.641 64.5633 147.248 54.9955 150.827 45.4207C151.699 43.0866 152.557 40.7385 153.415 38.3974C152.142 38.7689 151.369 39.4347 150.623 40.1287C142.692 47.5516 134.789 55.0095 126.802 62.3763C126.084 63.0422 124.748 63.5399 123.87 63.3436C123.328 63.2245 122.836 61.6684 122.78 60.7291C122.52 56.3693 122.449 52.0025 122.252 47.6357C121.922 40.0866 121.549 32.5376 121.177 24.5539C120.698 25.1357 120.495 25.2969 120.403 25.5002C115.39 36.4698 110.412 47.4604 105.328 58.395C104.808 59.5095 103.746 60.9815 102.748 61.1497C100.73 61.4932 100.709 59.4184 100.343 58.0516C95.8922 41.4254 91.4695 24.7922 87.0398 8.15905C86.7516 7.0726 86.4492 5.99316 86.1539 4.91372C84.825 10.4371 83.9883 15.8553 83.1937 21.2805C81.0492 35.9721 78.9328 50.6707 76.7883 65.3693C76.2258 69.2315 74.8617 69.9394 71.543 67.9698C65.9602 64.6614 60.4266 61.2689 54.8648 57.9254C52.8328 56.7058 50.7727 55.5212 48.3047 54.0633C51.8273 63.9324 55.1672 73.2058 58.4297 82.5072C58.8023 83.5656 59.2383 85.402 58.7602 85.7876C57.9234 86.4604 56.3273 86.6357 55.1742 86.3974C46.7508 84.6661 38.3414 82.8436 29.9602 80.9371C21.7617 79.0726 13.5914 77.0819 5.40703 75.1474C5.85703 76.0516 6.49688 76.5983 7.15781 77.117C21.3117 88.1847 35.4656 99.2455 49.6125 110.327C52.9102 112.914 53.0086 113.629 50.1469 116.797C45.2812 122.187 40.3242 127.507 35.3883 132.841C33.1594 135.253 30.8883 137.622 28.6383 140.012C29.5523 140.187 30.1852 139.963 30.8039 139.724C41.6109 135.554 52.418 131.376 63.232 127.22C66.593 125.93 67.2891 126.245 67.8937 129.673C68.8711 135.168 69.7289 140.692 70.5938 146.208C71.0648 149.229 71.4516 152.257 71.9578 155.839C77.1258 147.21 81.907 139.178 86.7586 131.194C87.2508 130.381 88.1719 129.827 88.8891 129.154C89.5641 129.89 90.457 130.521 90.8789 131.376C96.7852 143.474 102.635 155.601 108.485 167.727C110.587 172.094 112.662 176.474 114.75 180.841C115.256 179.895 115.284 179.075 115.249 178.248C114.729 164.46 114.18 150.673 113.723 136.879C113.688 135.883 114.328 134.874 114.659 133.865C115.509 134.348 116.522 134.671 117.197 135.33C121.556 139.64 125.831 144.028 130.155 148.367C130.479 148.696 130.95 148.886 131.66 149.327C131.66 148.01 131.674 147.07 131.66 146.131C131.541 140.103 131.351 134.082 131.309 128.054C131.288 125.362 132.3 124.837 134.515 126.309C137.145 128.054 139.683 129.932 142.249 131.769C147.656 135.624 153.063 139.493 158.47 143.355V143.369Z" fill="#1F2FA9"/>
<path d="M158.471 143.369C153.063 139.507 147.656 135.638 142.249 131.783C139.683 129.953 137.138 128.068 134.515 126.322C132.3 124.851 131.288 125.376 131.309 128.068C131.351 134.096 131.541 140.117 131.66 146.145C131.681 147.084 131.66 148.03 131.66 149.341C130.95 148.9 130.479 148.71 130.156 148.381C125.831 144.035 121.549 139.647 117.197 135.344C116.529 134.678 115.517 134.355 114.659 133.879C114.328 134.881 113.688 135.897 113.724 136.893C114.181 150.687 114.729 164.474 115.249 178.262C115.278 179.082 115.249 179.909 114.75 180.855C112.662 176.481 110.595 172.101 108.485 167.741C102.635 155.615 96.7853 143.488 90.8791 131.39C90.4572 130.535 89.5643 129.904 88.8893 129.168C88.1721 129.841 87.251 130.402 86.7588 131.208C81.9072 139.199 77.126 147.224 71.958 155.853C71.4518 152.271 71.065 149.243 70.5939 146.222C69.7291 140.706 68.8713 135.182 67.8939 129.687C67.2822 126.259 66.5861 125.937 63.2322 127.234C52.4182 131.39 41.6182 135.575 30.8041 139.738C30.1783 139.977 29.5455 140.201 28.6385 140.026C30.8885 137.636 33.1596 135.266 35.3885 132.855C40.3244 127.521 45.2744 122.201 50.1471 116.811C53.0088 113.643 52.9104 112.928 49.6127 110.341C35.4658 99.2594 21.3049 88.1986 7.15801 77.1309C6.49707 76.6122 5.85723 76.0655 5.40723 75.1613C13.5916 77.0958 21.7619 79.0865 29.9604 80.951C38.3486 82.8575 46.751 84.6799 55.1744 86.4113C56.3275 86.6496 57.9236 86.4743 58.7603 85.8014C59.2385 85.4159 58.8025 83.5795 58.4299 82.5211C55.1674 73.2197 51.8346 63.9463 48.3049 54.0771C50.7799 55.5281 52.833 56.7127 54.865 57.9393C60.4268 61.2828 65.9604 64.6753 71.5432 67.9837C74.8619 69.9463 76.226 69.2454 76.7885 65.3832C78.933 50.6916 81.0494 35.993 83.1939 21.2944C83.9885 15.8692 84.8252 10.444 86.1541 4.92761C86.4494 6.00705 86.7518 7.0935 87.04 8.17294C91.4697 24.8061 95.8924 41.4393 100.343 58.0655C100.709 59.4253 100.73 61.5 102.748 61.1636C103.753 60.9954 104.808 59.5234 105.328 58.4089C110.412 47.4743 115.39 36.4837 120.403 25.5141C120.495 25.3038 120.699 25.1496 121.177 24.5678C121.549 32.5514 121.922 40.1005 122.253 47.6496C122.442 52.0094 122.52 56.3832 122.78 60.743C122.836 61.6823 123.321 63.2384 123.87 63.3575C124.749 63.5468 126.085 63.0491 126.802 62.3902C134.789 55.0234 142.692 47.5725 150.624 40.1426C151.369 39.4486 152.142 38.7828 153.415 38.4113C152.55 40.7524 151.699 43.1005 150.828 45.4346C147.249 55.0094 143.642 64.5771 140.084 74.1589C139.05 76.9346 139.423 77.6496 142.348 78.5187C155.475 82.4159 168.61 86.2711 181.737 90.1472C182.475 90.3645 183.199 90.6169 183.98 91.3458C183.206 91.5491 182.44 91.7944 181.66 91.9627C170.585 94.3388 159.504 96.701 148.423 99.0701C147.734 99.2173 147.003 99.3015 146.398 99.6239C145.688 100.002 144.64 100.549 144.57 101.117C144.499 101.72 145.259 102.666 145.906 103.079C150.209 105.883 154.582 108.589 158.843 111.89C155.306 111.89 151.77 111.89 148.233 111.89C144.331 111.897 143.838 112.703 145.596 116.243C150.026 125.159 154.477 134.068 158.913 142.977C158.766 143.11 158.618 143.25 158.471 143.383V143.369Z" fill="#FFFDE9"/>
</g>
<defs>
<clipPath id="clip0_1745_4948">
<rect width="189" height="186" fill="white"/>
</clipPath>
</defs>
</svg>
